{"title":"The Boxtrolls 2014 HDRIP XVID AC3 ACAB","uid":11543599,"size":1297240575,"categoryP":"video","categoryS":"movies","magnet":"?xt=urn:btih:b82556734b2e4e46c56486c177a7ac937a1f2db5&amp;dn=The+Boxtrolls+2014+HDRIP+XVID+AC3+ACAB&amp;tr=udp%3A%2F%2Ftracker.openbittorrent.com%3A80&amp;tr=udp%3A%2F%2Fopen.demonii.com%3A1337&amp;tr=udp%3A%2F%2Ftracker.coppersurfer.tk%3A6969&amp;tr=udp%3A%2F%2Fexodus.desync.com%3A6969","seeders":2,"leechers":1,"uploader":"TvTeam","files":4,"time":1416697665,"description":" &lt;a href=&quot;http://www.torrenting.com&quot; rel=&quot;nofollow&quot; target=&quot;_NEW&quot;&gt;http://www.torrenting.com&lt;/a&gt;\n\nSign up is OPEN - for time being. Come and have fun.\n\n------------------------------------------------------------------[b][center][IMG]http://s3.postimg.org/pzp2a4577/The_Boxtrolls_2014_DVD_Cover.jpg[/IMG]\n\n[color=red]CLICK IMAGE FOR IMDB[/color]\n\n\n[IMG]http://i.imgur.com/jzdABoE.png[/IMG]\n\nFormat                                   : AVI\nFormat/Info                              : Audio Video Interleave\nFile size                                : 1.18 GiB\nDuration                                 : 1h 36mn\nOverall bit rate                         : 1 762 Kbps\nWriting library                          : VirtualDub build 30091/release\n\nVideo\nID                                       : 0\nFormat                                   : MPEG-4 Visual\nFormat profile                           : Advanced Simple@L5\nFormat settings, BVOP                    : 2\nFormat settings, QPel                    : No\nFormat settings, GMC                     : No warppoints\nFormat settings, Matrix                  : Default (H.263)\nMuxing mode                              : Packed bitstream\nCodec ID                                 : XVID\nCodec ID/Hint                            : XviD\nDuration                                 : 1h 36mn\nBit rate                                 : 1 497 Kbps\nWidth                                    : 720 pixels\nHeight                                   : 400 pixels\nDisplay aspect ratio                     : 16:9\nFrame rate                               : 23.976 fps\nColor space                              : YUV\nChroma subsampling                       : 4:2:0\nBit depth                                : 8 bits\nScan type                                : Progressive\nCompression mode                         : Lossy\nBits/(Pixel*Frame)                       : 0.217\nStream size                              : 1.01 GiB (85%)\nWriting library                          : XviD 66\n\nAudio\nID                                       : 1\nFormat                                   : AC-3\nFormat/Info                              : Audio Coding 3\nMode extension                           : CM (complete main)\nFormat settings, Endianness              : Big\nCodec ID                                 : 2000\nDuration                                 : 1h 36mn\nBit rate mode                            : Constant\nBit rate                                 : 256 Kbps\nChannel(s)                               : 2 channels\nChannel positions                        : Front: L R\nSampling rate                            : 48.0 KHz\nBit depth                                : 16 bits\nCompression mode                         : Lossy\nStream size                              : 176 MiB (15%)\nAlignment                                : Aligned on interleaves\nInterleave, duration                     : 42 ms (1.00 video frame)\nInterleave, preload duration             : 512 ms\n\n[IMG]http://i.imgur.com/wB1VfhA.png[/IMG]\n\n[IMG]http://s3.postimg.org/542ryv903/image.png[/IMG]\n\n[IMG]http://s3.postimg.org/f2nqlcifn/image.png[/IMG]\n\n[IMG]http://s3.postimg.org/44ch35tub/image.png[/IMG]\n\n[IMG]http://s3.postimg.org/tbnd3ewyb/image.png[/IMG]\n\n[IMG]http://i.imgur.com/ec7eRox.gif[/IMG]\n\n[IMG]http://i.imgur.com/QLR6qtw.png[/IMG]\n\n[IMG]http://i.imgur.com/V7ozKuR.png[/IMG]\n\nSource---1080p Russian WEB-DL\nAudio R6 Release [Thanks]\n\n[IMG]http://i.imgur.com/2NlYL7R.png[/IMG]\n\nto  All[/center][/b]","torrent":{"xt":"urn:btih:b82556734b2e4e46c56486c177a7ac937a1f2db5","amp;dn":"The+Boxtrolls+2014+HDRIP+XVID+AC3+ACAB","amp;tr":["udp%3A%2F%2Ftracker.openbittorrent.com%3A80","udp%3A%2F%2Fopen.demonii.com%3A1337","udp%3A%2F%2Ftracker.coppersurfer.tk%3A6969","udp%3A%2F%2Fexodus.desync.com%3A6969"],"infoHash":"b82556734b2e4e46c56486c177a7ac937a1f2db5","infoHashBuffer":{"type":"Buffer","data":[184,37,86,115,75,46,78,70,197,100,134,193,119,167,172,147,122,31,45,181]},"announce":[],"urlList":[]}}